<svg width="14" height="14" viewBox="0 0 14 14" fill="none" xmlns="http://www.w3.org/2000/svg">
<path d="M7.88572 11.6297H12.2057V12.5074H7.88572V11.6297ZM7.88572 9.36686H12.2057V10.1897H7.88572V9.36686ZM7.09029 0.479999H8.05029V4.59428C8.05029 4.81371 8.10057 4.96 8.20114 5.03314C8.31086 5.09714 8.55772 5.12914 8.94172 5.12914C9.01486 5.12914 9.13372 5.12914 9.29829 5.12914C9.472 5.12914 9.66857 5.12914 9.888 5.12914C10.1074 5.12914 10.3314 5.12914 10.56 5.12914C10.7886 5.12914 10.9943 5.12914 11.1771 5.12914C11.3691 5.12914 11.5154 5.12914 11.616 5.12914C11.8171 5.12914 11.9634 5.09257 12.0549 5.01943C12.1554 4.94628 12.224 4.80914 12.2606 4.608C12.3063 4.39771 12.3383 4.08686 12.3566 3.67543C12.4754 3.74857 12.6217 3.82171 12.7954 3.89486C12.9691 3.95886 13.1246 4.00914 13.2617 4.04571C13.2251 4.56686 13.1566 4.97371 13.056 5.26628C12.9554 5.54971 12.7954 5.74629 12.576 5.856C12.3566 5.96571 12.0549 6.02057 11.6709 6.02057C11.6069 6.02057 11.4789 6.02057 11.2869 6.02057C11.104 6.02057 10.8891 6.02057 10.6423 6.02057C10.3954 6.02057 10.144 6.02057 9.888 6.02057C9.64114 6.02057 9.42172 6.02057 9.22972 6.02057C9.04686 6.02057 8.92343 6.02057 8.85943 6.02057C8.39314 6.02057 8.02743 5.984 7.76229 5.91086C7.50629 5.82857 7.328 5.68686 7.22743 5.48571C7.136 5.27543 7.09029 4.97828 7.09029 4.59428V0.479999ZM11.8766 1.22057L12.6171 1.96114C12.1874 2.16228 11.6983 2.35886 11.1497 2.55086C10.6011 2.73371 10.0343 2.90286 9.44914 3.05828C8.864 3.21371 8.29257 3.36 7.73486 3.49714C7.70743 3.39657 7.66172 3.27314 7.59772 3.12686C7.53372 2.98057 7.46972 2.85257 7.40572 2.74286C7.94514 2.61486 8.49372 2.46857 9.05143 2.304C9.60914 2.13943 10.1303 1.96571 10.6149 1.78286C11.1086 1.59086 11.5291 1.40343 11.8766 1.22057ZM7.37829 7.104H12.768V13.056H11.7943V7.98171H8.33829V13.1246H7.37829V7.104ZM2.52343 1.71428H4.96457V2.53714H2.52343V1.71428ZM3.44229 4.37486H4.224V8.88686H3.44229V4.37486ZM4.64914 1.71428H4.86857L5.04686 1.65943L5.65029 2.05714C5.45829 2.51428 5.22514 2.98057 4.95086 3.456C4.68571 3.92228 4.42971 4.32457 4.18286 4.66286C4.10971 4.57143 4.01371 4.47086 3.89486 4.36114C3.78514 4.24228 3.68457 4.15086 3.59314 4.08686C3.73029 3.89486 3.86286 3.67086 3.99086 3.41486C4.128 3.15886 4.25143 2.89828 4.36114 2.63314C4.48 2.35886 4.576 2.112 4.64914 1.89257V1.71428ZM5.32114 9.86057L5.99314 9.61371C6.19429 9.96114 6.38629 10.3406 6.56914 10.752C6.752 11.1634 6.88457 11.52 6.96686 11.8217L6.26743 12.1097C6.19429 11.7989 6.06629 11.4331 5.88343 11.0126C5.70972 10.592 5.52229 10.208 5.32114 9.86057ZM4.032 9.984L4.71771 9.83314C4.87314 10.208 5.01029 10.624 5.12914 11.0811C5.248 11.5291 5.33029 11.9131 5.376 12.2331L4.64914 12.4114C4.62171 12.0823 4.54857 11.6937 4.42971 11.2457C4.31086 10.7886 4.17829 10.368 4.032 9.984ZM2.75657 9.99771L3.46971 9.90171C3.56114 10.3131 3.62057 10.7566 3.648 11.232C3.68457 11.6983 3.69371 12.1051 3.67543 12.4526L2.92114 12.5486C2.94857 12.2011 2.944 11.7943 2.90743 11.328C2.88 10.8526 2.82971 10.4091 2.75657 9.99771ZM2.24914 6.99429V8.40686H5.472V6.99429H2.24914ZM2.24914 4.8V6.18514H5.472V4.8H2.24914ZM1.38514 3.94971H6.36343V9.25714H1.38514V3.94971ZM1.52229 9.888L2.27657 10.0663C2.21257 10.6514 2.09829 11.2183 1.93371 11.7669C1.77829 12.3154 1.52229 12.7634 1.16571 13.1109L0.48 12.6994C0.8 12.3886 1.03771 11.9771 1.19314 11.4651C1.34857 10.9531 1.45829 10.4274 1.52229 9.888ZM2.53714 0.479999L3.49714 0.603427C3.36 1.10628 3.18629 1.632 2.976 2.18057C2.76571 2.72914 2.51429 3.27314 2.22171 3.81257C1.93829 4.352 1.6 4.864 1.20686 5.34857C1.12457 5.248 1.01029 5.13828 0.864 5.01943C0.726857 4.90057 0.598857 4.80914 0.48 4.74514C0.836572 4.31543 1.14743 3.85371 1.41257 3.36C1.68686 2.86628 1.91543 2.37257 2.09829 1.87886C2.29029 1.376 2.43657 0.909713 2.53714 0.479999Z" fill="#FF0000"/>
</svg>
