<svg width="168" height="24" viewBox="0 0 168 24" fill="none" xmlns="http://www.w3.org/2000/svg">
<g id="stars">
<g id="Star" clip-path="url(#clip0_286493_982)">
<path id="Vector" d="M12.6881 2.70939L14.8659 7.89939C14.9186 8.02534 15.0047 8.13452 15.1149 8.21514C15.2251 8.29576 15.3552 8.34477 15.4912 8.35689L21.0656 8.83876C21.2135 8.85065 21.3546 8.90615 21.4709 8.99822C21.5873 9.0903 21.6737 9.21483 21.7193 9.35604C21.7649 9.49726 21.7675 9.64881 21.7269 9.79153C21.6863 9.93426 21.6043 10.0617 21.4912 10.1578L17.2622 13.8469C17.1594 13.9372 17.083 14.0536 17.041 14.1839C16.9991 14.3141 16.9932 14.4533 17.0241 14.5866L18.2916 20.0747C18.3251 20.218 18.3156 20.3681 18.2645 20.5061C18.2133 20.6441 18.1226 20.764 18.0038 20.8509C17.8849 20.9377 17.7432 20.9877 17.5961 20.9946C17.4491 21.0014 17.3033 20.9648 17.1769 20.8894L12.3862 17.9831C12.2698 17.9124 12.1362 17.8749 12 17.8749C11.8638 17.8749 11.7302 17.9124 11.6137 17.9831L6.82312 20.8894C6.69672 20.9648 6.55091 21.0014 6.40387 20.9946C6.25683 20.9877 6.11505 20.9377 5.99621 20.8509C5.87736 20.764 5.78671 20.6441 5.73554 20.5061C5.68436 20.3681 5.67494 20.218 5.70843 20.0747L6.97593 14.5866C7.00674 14.4533 7.00087 14.3141 6.95895 14.1839C6.91702 14.0536 6.8406 13.9372 6.73781 13.8469L2.50875 10.1578C2.39568 10.0617 2.31367 9.93426 2.27307 9.79153C2.23248 9.64881 2.23513 9.49726 2.2807 9.35604C2.32626 9.21483 2.41269 9.0903 2.52905 8.99822C2.64541 8.90615 2.78647 8.85065 2.93437 8.83876L8.50875 8.35689C8.64475 8.34477 8.77486 8.29576 8.88506 8.21514C8.99525 8.13452 9.08135 8.02534 9.13406 7.89939L11.3119 2.70939C11.37 2.57521 11.4662 2.46096 11.5884 2.3807C11.7107 2.30045 11.8537 2.25769 12 2.25769C12.1462 2.25769 12.2893 2.30045 12.4116 2.3807C12.5338 2.46096 12.63 2.57521 12.6881 2.70939Z" fill="#FF0000" stroke="#FF0000" stroke-width="2" stroke-linecap="round" stroke-linejoin="round"/>
</g>
<g id="Star_2" clip-path="url(#clip1_286493_982)">
<path id="Vector_2" d="M48.6881 2.70939L50.8659 7.89939C50.9186 8.02534 51.0047 8.13452 51.1149 8.21514C51.2251 8.29576 51.3552 8.34477 51.4912 8.35689L57.0656 8.83876C57.2135 8.85065 57.3546 8.90615 57.4709 8.99822C57.5873 9.0903 57.6737 9.21483 57.7193 9.35604C57.7649 9.49726 57.7675 9.64881 57.7269 9.79153C57.6863 9.93426 57.6043 10.0617 57.4912 10.1578L53.2622 13.8469C53.1594 13.9372 53.083 14.0536 53.041 14.1839C52.9991 14.3141 52.9932 14.4533 53.0241 14.5866L54.2916 20.0747C54.3251 20.218 54.3156 20.3681 54.2645 20.5061C54.2133 20.6441 54.1226 20.764 54.0038 20.8509C53.8849 20.9377 53.7432 20.9877 53.5961 20.9946C53.4491 21.0014 53.3033 20.9648 53.1769 20.8894L48.3862 17.9831C48.2698 17.9124 48.1362 17.8749 48 17.8749C47.8638 17.8749 47.7302 17.9124 47.6137 17.9831L42.8231 20.8894C42.6967 20.9648 42.5509 21.0014 42.4039 20.9946C42.2568 20.9877 42.1151 20.9377 41.9962 20.8509C41.8774 20.764 41.7867 20.6441 41.7355 20.5061C41.6844 20.3681 41.6749 20.218 41.7084 20.0747L42.9759 14.5866C43.0067 14.4533 43.0009 14.3141 42.9589 14.1839C42.917 14.0536 42.8406 13.9372 42.7378 13.8469L38.5087 10.1578C38.3957 10.0617 38.3137 9.93426 38.2731 9.79153C38.2325 9.64881 38.2351 9.49726 38.2807 9.35604C38.3263 9.21483 38.4127 9.0903 38.5291 8.99822C38.6454 8.90615 38.7865 8.85065 38.9344 8.83876L44.5087 8.35689C44.6447 8.34477 44.7749 8.29576 44.8851 8.21514C44.9953 8.13452 45.0813 8.02534 45.1341 7.89939L47.3119 2.70939C47.37 2.57521 47.4662 2.46096 47.5884 2.3807C47.7107 2.30045 47.8537 2.25769 48 2.25769C48.1462 2.25769 48.2893 2.30045 48.4116 2.3807C48.5338 2.46096 48.63 2.57521 48.6881 2.70939Z" fill="#FF0000" stroke="#FF0000" stroke-width="2" stroke-linecap="round" stroke-linejoin="round"/>
</g>
<g id="Star_3" clip-path="url(#clip2_286493_982)">
<path id="Vector_3" d="M84.6881 2.70939L86.8659 7.89939C86.9186 8.02534 87.0047 8.13452 87.1149 8.21514C87.2251 8.29576 87.3552 8.34477 87.4912 8.35689L93.0656 8.83876C93.2135 8.85065 93.3546 8.90615 93.4709 8.99822C93.5873 9.0903 93.6737 9.21483 93.7193 9.35604C93.7649 9.49726 93.7675 9.64881 93.7269 9.79153C93.6863 9.93426 93.6043 10.0617 93.4912 10.1578L89.2622 13.8469C89.1594 13.9372 89.083 14.0536 89.041 14.1839C88.9991 14.3141 88.9932 14.4533 89.0241 14.5866L90.2916 20.0747C90.3251 20.218 90.3156 20.3681 90.2645 20.5061C90.2133 20.6441 90.1226 20.764 90.0038 20.8509C89.8849 20.9377 89.7432 20.9877 89.5961 20.9946C89.4491 21.0014 89.3033 20.9648 89.1769 20.8894L84.3862 17.9831C84.2698 17.9124 84.1362 17.8749 84 17.8749C83.8638 17.8749 83.7302 17.9124 83.6137 17.9831L78.8231 20.8894C78.6967 20.9648 78.5509 21.0014 78.4039 20.9946C78.2568 20.9877 78.1151 20.9377 77.9962 20.8509C77.8774 20.764 77.7867 20.6441 77.7355 20.5061C77.6844 20.3681 77.6749 20.218 77.7084 20.0747L78.9759 14.5866C79.0067 14.4533 79.0009 14.3141 78.9589 14.1839C78.917 14.0536 78.8406 13.9372 78.7378 13.8469L74.5087 10.1578C74.3957 10.0617 74.3137 9.93426 74.2731 9.79153C74.2325 9.64881 74.2351 9.49726 74.2807 9.35604C74.3263 9.21483 74.4127 9.0903 74.5291 8.99822C74.6454 8.90615 74.7865 8.85065 74.9344 8.83876L80.5087 8.35689C80.6447 8.34477 80.7749 8.29576 80.8851 8.21514C80.9953 8.13452 81.0813 8.02534 81.1341 7.89939L83.3119 2.70939C83.37 2.57521 83.4662 2.46096 83.5884 2.3807C83.7107 2.30045 83.8537 2.25769 84 2.25769C84.1462 2.25769 84.2893 2.30045 84.4116 2.3807C84.5338 2.46096 84.63 2.57521 84.6881 2.70939Z" fill="#FF0000" stroke="#FF0000" stroke-width="2" stroke-linecap="round" stroke-linejoin="round"/>
</g>
<g id="Star_4" clip-path="url(#clip3_286493_982)">
<path id="Vector_4" d="M120.688 2.70939L122.866 7.89939C122.919 8.02534 123.005 8.13452 123.115 8.21514C123.225 8.29576 123.355 8.34477 123.491 8.35689L129.066 8.83876C129.214 8.85065 129.355 8.90615 129.471 8.99822C129.587 9.0903 129.674 9.21483 129.719 9.35604C129.765 9.49726 129.768 9.64881 129.727 9.79153C129.686 9.93426 129.604 10.0617 129.491 10.1578L125.262 13.8469C125.159 13.9372 125.083 14.0536 125.041 14.1839C124.999 14.3141 124.993 14.4533 125.024 14.5866L126.292 20.0747C126.325 20.218 126.316 20.3681 126.264 20.5061C126.213 20.6441 126.123 20.764 126.004 20.8509C125.885 20.9377 125.743 20.9877 125.596 20.9946C125.449 21.0014 125.303 20.9648 125.177 20.8894L120.386 17.9831C120.27 17.9124 120.136 17.8749 120 17.8749C119.864 17.8749 119.73 17.9124 119.614 17.9831L114.823 20.8894C114.697 20.9648 114.551 21.0014 114.404 20.9946C114.257 20.9877 114.115 20.9377 113.996 20.8509C113.877 20.764 113.787 20.6441 113.736 20.5061C113.684 20.3681 113.675 20.218 113.708 20.0747L114.976 14.5866C115.007 14.4533 115.001 14.3141 114.959 14.1839C114.917 14.0536 114.841 13.9372 114.738 13.8469L110.509 10.1578C110.396 10.0617 110.314 9.93426 110.273 9.79153C110.232 9.64881 110.235 9.49726 110.281 9.35604C110.326 9.21483 110.413 9.0903 110.529 8.99822C110.645 8.90615 110.786 8.85065 110.934 8.83876L116.509 8.35689C116.645 8.34477 116.775 8.29576 116.885 8.21514C116.995 8.13452 117.081 8.02534 117.134 7.89939L119.312 2.70939C119.37 2.57521 119.466 2.46096 119.588 2.3807C119.711 2.30045 119.854 2.25769 120 2.25769C120.146 2.25769 120.289 2.30045 120.412 2.3807C120.534 2.46096 120.63 2.57521 120.688 2.70939Z" fill="#FF0000" stroke="#FF0000" stroke-width="2" stroke-linecap="round" stroke-linejoin="round"/>
</g>
<g id="Star_5" clip-path="url(#clip4_286493_982)">
<path id="Vector_5" d="M156.688 2.70939L158.866 7.89939C158.919 8.02534 159.005 8.13452 159.115 8.21514C159.225 8.29576 159.355 8.34477 159.491 8.35689L165.066 8.83876C165.214 8.85065 165.355 8.90615 165.471 8.99822C165.587 9.0903 165.674 9.21483 165.719 9.35604C165.765 9.49726 165.768 9.64881 165.727 9.79153C165.686 9.93426 165.604 10.0617 165.491 10.1578L161.262 13.8469C161.159 13.9372 161.083 14.0536 161.041 14.1839C160.999 14.3141 160.993 14.4533 161.024 14.5866L162.292 20.0747C162.325 20.218 162.316 20.3681 162.264 20.5061C162.213 20.6441 162.123 20.764 162.004 20.8509C161.885 20.9377 161.743 20.9877 161.596 20.9946C161.449 21.0014 161.303 20.9648 161.177 20.8894L156.386 17.9831C156.27 17.9124 156.136 17.8749 156 17.8749C155.864 17.8749 155.73 17.9124 155.614 17.9831L150.823 20.8894C150.697 20.9648 150.551 21.0014 150.404 20.9946C150.257 20.9877 150.115 20.9377 149.996 20.8509C149.877 20.764 149.787 20.6441 149.736 20.5061C149.684 20.3681 149.675 20.218 149.708 20.0747L150.976 14.5866C151.007 14.4533 151.001 14.3141 150.959 14.1839C150.917 14.0536 150.841 13.9372 150.738 13.8469L146.509 10.1578C146.396 10.0617 146.314 9.93426 146.273 9.79153C146.232 9.64881 146.235 9.49726 146.281 9.35604C146.326 9.21483 146.413 9.0903 146.529 8.99822C146.645 8.90615 146.786 8.85065 146.934 8.83876L152.509 8.35689C152.645 8.34477 152.775 8.29576 152.885 8.21514C152.995 8.13452 153.081 8.02534 153.134 7.89939L155.312 2.70939C155.37 2.57521 155.466 2.46096 155.588 2.3807C155.711 2.30045 155.854 2.25769 156 2.25769C156.146 2.25769 156.289 2.30045 156.412 2.3807C156.534 2.46096 156.63 2.57521 156.688 2.70939Z" fill="#FF0000" stroke="#FF0000" stroke-width="2" stroke-linecap="round" stroke-linejoin="round"/>
</g>
</g>
<defs>
<clipPath id="clip0_286493_982">
<rect width="24" height="24" fill="white"/>
</clipPath>
<clipPath id="clip1_286493_982">
<rect width="24" height="24" fill="white" transform="translate(36)"/>
</clipPath>
<clipPath id="clip2_286493_982">
<rect width="24" height="24" fill="white" transform="translate(72)"/>
</clipPath>
<clipPath id="clip3_286493_982">
<rect width="24" height="24" fill="white" transform="translate(108)"/>
</clipPath>
<clipPath id="clip4_286493_982">
<rect width="24" height="24" fill="white" transform="translate(144)"/>
</clipPath>
</defs>
</svg>
