<svg width="213" height="41" viewBox="0 0 213 41" fill="none" xmlns="http://www.w3.org/2000/svg">
<g id="logo">
<path id="&#233;&#174;&#168;" d="M10.7974 9.00114C10.296 10.2046 9.66086 11.4749 9.05914 12.4443H5.31514C5.95029 11.3077 6.51857 10.1711 6.98657 9.00114H10.7974ZM13.3714 17.8263H10.3629V14.4834H13.3714V17.8263ZM13.3714 23.2083H10.3629V19.7651H13.3714V23.2083ZM5.54914 17.8263V14.4834H8.45743V17.8263H5.54914ZM8.45743 19.7651V23.2083H5.54914V19.7651H8.45743ZM3.47657 15.2857V25.2809H15.5109V12.4443H11.3991C12.2683 11.0403 13.1374 9.40228 13.806 7.86457L12.3351 6.89514L11.9006 7.02885H7.75543C8.05629 6.12628 8.35714 5.22371 8.59114 4.35457L6.28457 4.02028C5.51571 7.16257 3.87771 11.2743 1.30371 14.3831C1.83857 14.6506 2.64086 15.3191 3.042 15.8206L3.47657 15.2857ZM2.94171 34.574C4.64657 32.936 5.28171 30.0277 5.616 27.2197L3.81086 26.7851C3.54343 29.426 2.84143 32.0669 1.30371 33.6046L2.94171 34.574ZM6.81943 27.0526C7.15372 29.0249 7.32086 31.5654 7.22057 33.2034L9.02572 33.0029C9.09257 31.3314 8.92543 28.8243 8.52429 26.8186L6.81943 27.0526ZM9.89486 27.0191C10.5969 28.8911 11.1986 31.298 11.3657 32.9026L13.104 32.468C12.9034 30.8969 12.3017 28.49 11.4994 26.6514L9.89486 27.0191ZM13.0037 26.7183C13.9731 28.3897 14.9091 30.6629 15.3103 32.1671L16.9817 31.4651C16.5806 29.9943 15.6111 27.788 14.6083 26.1166L13.0037 26.7183ZM28.6483 22.172V25.5149H20.2577V22.172H28.6483ZM20.2577 30.9971V27.5206H28.6483V30.9971H20.2577ZM17.9846 34.6074H20.2577V33.1366H28.6483V34.4403H30.9883V20.0326H17.9846V34.6074ZM21.7286 15.2523C19.89 15.2523 19.5891 15.0517 19.5891 14.0154V11.1406C23.4334 10.238 27.7123 9.00114 30.6206 7.59714L28.8823 5.85885C26.7094 7.02885 23.0657 8.23228 19.5891 9.13486V4.05371H17.2826V14.0154C17.2826 16.7231 18.1517 17.4251 21.5614 17.4251H28.3474C31.1554 17.4251 31.9243 16.4223 32.2251 12.6783C31.5566 12.5111 30.5871 12.1434 30.0523 11.7423C29.9186 14.7509 29.6511 15.2523 28.2137 15.2523H21.7286Z" fill="#232323"/>
<path id="SUSHINOW" d="M50.2946 12.7216C50.6191 12.3972 50.7813 12.1634 50.7813 12.0202C50.7813 11.8675 50.7098 11.7387 50.5666 11.6337C50.433 11.5287 50.2565 11.4381 50.037 11.3617C49.827 11.2854 49.5884 11.2233 49.3212 11.1756C49.0635 11.1184 48.8106 11.0754 48.5625 11.0468C48.0662 10.9895 47.6416 10.9609 47.2885 10.9609C46.9449 10.9609 46.5441 10.9943 46.086 11.0611C45.6374 11.1279 45.2223 11.2567 44.8406 11.4476C43.9721 11.8866 43.5379 12.5403 43.5379 13.4088C43.5379 14.2772 43.6954 14.9739 44.0103 15.4988C44.3348 16.0141 44.7547 16.4436 45.27 16.7871C45.7854 17.1307 46.3723 17.417 47.0308 17.6461C47.6988 17.8751 48.3812 18.0898 49.0778 18.2902C49.7745 18.4906 50.4521 18.7054 51.1106 18.9344C51.7786 19.1635 52.3703 19.4545 52.8857 19.8076C54.0404 20.5997 54.6178 21.702 54.6178 23.1144C54.6178 24.4982 54.0309 25.7818 52.857 26.9652C51.855 27.9768 50.5237 28.8071 48.8631 29.456C47.3648 30.0477 45.9285 30.3436 44.5543 30.3436C43.7049 30.3436 42.9319 30.2434 42.2352 30.0429C41.5481 29.8425 41.0614 29.666 40.7751 29.5133C40.107 29.1793 39.773 28.7832 39.773 28.3251C39.773 27.5903 40.8657 26.6264 43.0512 25.4335C42.7649 25.7484 42.6217 26.0538 42.6217 26.3496C42.6217 26.6359 42.7124 26.8841 42.8937 27.094C43.0846 27.2944 43.3279 27.471 43.6238 27.6237C43.9196 27.7668 44.2489 27.8861 44.6115 27.9816C44.9837 28.077 45.3511 28.1533 45.7138 28.2106C46.3818 28.3156 46.9878 28.3681 47.5318 28.3681C48.0758 28.3681 48.6102 28.3204 49.1351 28.2249C49.66 28.1199 50.1276 27.9434 50.538 27.6953C51.4637 27.1417 51.9266 26.2685 51.9266 25.0756C51.9266 23.2242 50.7527 21.8499 48.405 20.9528C47.737 20.7047 47.0499 20.4709 46.3437 20.2514C45.647 20.0224 44.9646 19.7885 44.2966 19.55C43.6286 19.3114 43.0369 19.0251 42.5215 18.6911C41.3572 17.9276 40.7751 16.9208 40.7751 15.6706C40.7751 14.6303 41.362 13.5567 42.5358 12.4497C43.5474 11.4953 44.8215 10.6746 46.358 9.98746C47.8181 9.32897 49.0635 8.99972 50.0942 8.99972C51.0199 8.99972 51.7643 9.08561 52.3274 9.25739C52.8904 9.42917 53.2435 9.56278 53.3867 9.65821C53.5394 9.7441 53.6157 9.84908 53.6157 9.97315C53.6157 10.0877 53.5489 10.2308 53.4153 10.4026C53.2817 10.5648 53.1099 10.7414 52.9 10.9323C52.69 11.1231 52.4562 11.314 52.1985 11.5049C51.9504 11.6957 51.7023 11.8723 51.4542 12.0345C50.8816 12.4067 50.495 12.6358 50.2946 12.7216ZM80.3134 9.38623C80.113 9.44349 79.8935 9.57709 79.6549 9.78705C79.4164 9.997 79.1682 10.2165 78.9106 10.4455C78.2616 11.0372 77.7987 11.3331 77.522 11.3331H76.4627V24.4314C76.4627 25.4812 76.2479 26.4308 75.8185 27.2801C75.6753 27.576 75.5036 27.8289 75.3031 28.0388H80.0271C79.7981 28.1056 79.445 28.3585 78.9678 28.7975C78.5002 29.227 78.1423 29.5324 77.8942 29.7137C77.6556 29.895 77.4361 29.9857 77.2357 29.9857H72.5403C73.1129 29.184 73.4422 28.5589 73.5281 28.1104C73.6235 27.6619 73.676 27.2658 73.6855 26.9222C72.1681 28.0197 70.937 28.7784 69.9922 29.1984C68.2172 29.9905 66.652 30.3865 65.2969 30.3865C63.9417 30.3865 62.8585 30.2195 62.0473 29.8855C61.2362 29.5515 60.5872 29.0743 60.1005 28.454C59.1748 27.2897 58.7119 25.5432 58.7119 23.2146V11.3331H56.2927C56.4072 11.2472 56.5933 11.0993 56.851 10.8893C57.1086 10.6698 57.3854 10.4455 57.6812 10.2165C58.4161 9.66298 58.8789 9.38623 59.0698 9.38623H65.0392C64.8102 9.45303 64.4571 9.70593 63.9799 10.1449C63.5123 10.5744 63.1544 10.8798 62.9063 11.0611C62.6677 11.2424 62.4482 11.3331 62.2478 11.3331H61.4891V22.3987C61.4891 24.3455 62.0807 25.8486 63.2641 26.9079C64.3998 27.91 65.9554 28.411 67.9309 28.411C69.2765 28.411 70.7796 27.9959 72.4401 27.1656C72.9173 26.927 73.3324 26.6741 73.6855 26.4069V11.3331H70.9943C71.1088 11.2472 71.2949 11.0993 71.5526 10.8893C71.8198 10.6698 72.1013 10.4455 72.3972 10.2165C73.132 9.66298 73.5949 9.38623 73.7857 9.38623H80.3134ZM91.5508 12.7216C91.8753 12.3972 92.0375 12.1634 92.0375 12.0202C92.0375 11.8675 91.9659 11.7387 91.8228 11.6337C91.6892 11.5287 91.5126 11.4381 91.2931 11.3617C91.0832 11.2854 90.8446 11.2233 90.5774 11.1756C90.3197 11.1184 90.0668 11.0754 89.8187 11.0468C89.3224 10.9895 88.8977 10.9609 88.5446 10.9609C88.2011 10.9609 87.8002 10.9943 87.3422 11.0611C86.8936 11.1279 86.4785 11.2567 86.0967 11.4476C85.2283 11.8866 84.7941 12.5403 84.7941 13.4088C84.7941 14.2772 84.9515 14.9739 85.2665 15.4988C85.5909 16.0141 86.0109 16.4436 86.5262 16.7871C87.0415 17.1307 87.6285 17.417 88.287 17.6461C88.955 17.8751 89.6374 18.0898 90.334 18.2902C91.0307 18.4906 91.7083 18.7054 92.3668 18.9344C93.0348 19.1635 93.6265 19.4545 94.1418 19.8076C95.2966 20.5997 95.874 21.702 95.874 23.1144C95.874 24.4982 95.2871 25.7818 94.1132 26.9652C93.1112 27.9768 91.7799 28.8071 90.1193 29.456C88.621 30.0477 87.1847 30.3436 85.8104 30.3436C84.9611 30.3436 84.1881 30.2434 83.4914 30.0429C82.8043 29.8425 82.3176 29.666 82.0313 29.5133C81.3632 29.1793 81.0292 28.7832 81.0292 28.3251C81.0292 27.5903 82.1219 26.6264 84.3074 25.4335C84.0211 25.7484 83.8779 26.0538 83.8779 26.3496C83.8779 26.6359 83.9686 26.8841 84.1499 27.094C84.3408 27.2944 84.5841 27.471 84.88 27.6237C85.1758 27.7668 85.5051 27.8861 85.8677 27.9816C86.2399 28.077 86.6073 28.1533 86.97 28.2106C87.638 28.3156 88.244 28.3681 88.788 28.3681C89.332 28.3681 89.8664 28.3204 90.3913 28.2249C90.9162 28.1199 91.3838 27.9434 91.7942 27.6953C92.7199 27.1417 93.1827 26.2685 93.1827 25.0756C93.1827 23.2242 92.0089 21.8499 89.6612 20.9528C88.9932 20.7047 88.306 20.4709 87.5998 20.2514C86.9032 20.0224 86.2208 19.7885 85.5528 19.55C84.8847 19.3114 84.293 19.0251 83.7777 18.6911C82.6134 17.9276 82.0313 16.9208 82.0313 15.6706C82.0313 14.6303 82.6182 13.5567 83.792 12.4497C84.8036 11.4953 86.0777 10.6746 87.6142 9.98746C89.0743 9.32897 90.3197 8.99972 91.3504 8.99972C92.2761 8.99972 93.0205 9.08561 93.5836 9.25739C94.1466 9.42917 94.4997 9.56278 94.6429 9.65821C94.7956 9.7441 94.8719 9.84908 94.8719 9.97315C94.8719 10.0877 94.8051 10.2308 94.6715 10.4026C94.5379 10.5648 94.3661 10.7414 94.1562 10.9323C93.9462 11.1231 93.7124 11.314 93.4547 11.5049C93.2066 11.6957 92.9585 11.8723 92.7103 12.0345C92.1377 12.4067 91.7512 12.6358 91.5508 12.7216ZM120.152 28.0531C120.038 28.0627 119.728 28.2917 119.222 28.7403C118.239 29.5801 117.619 30 117.361 30H112.522C113.028 29.4369 113.348 28.9884 113.482 28.6544C113.692 28.1199 113.797 27.428 113.797 26.5787V20.2371H103.146V24.4457C103.146 25.3524 103.103 25.9679 103.017 26.2924C102.884 26.7886 102.583 27.3756 102.115 28.0531H106.711C106.577 28.0722 106.281 28.2822 105.823 28.683C105.365 29.0838 105.04 29.3558 104.85 29.499C104.42 29.833 104.11 30 103.919 30H99.0662C99.7725 29.4465 100.183 28.6878 100.297 27.7239C100.336 27.3899 100.355 27.0081 100.355 26.5787V11.3474H97.6777L98.236 10.9036C99.448 9.90157 100.188 9.40054 100.455 9.40054H106.711C106.596 9.40054 106.305 9.60572 105.837 10.0161C105.37 10.4265 105.04 10.7032 104.85 10.8464C104.42 11.1804 104.11 11.3474 103.919 11.3474H103.146V18.2902H113.797V11.3474H111.12L111.664 10.9036C112.885 9.90157 113.634 9.40054 113.911 9.40054H120.152C120.038 9.40054 119.747 9.60572 119.279 10.0161C118.812 10.4265 118.487 10.7032 118.306 10.8464C117.867 11.1804 117.552 11.3474 117.361 11.3474H116.588V24.4457C116.588 25.3524 116.545 25.9679 116.459 26.2924C116.326 26.8077 116.03 27.3946 115.572 28.0531H120.152ZM121.527 11.3474C123.111 10.0495 124.037 9.40054 124.304 9.40054H130.832C130.707 9.41963 130.416 9.62958 129.958 10.0304C129.5 10.4312 129.176 10.7032 128.985 10.8464C128.555 11.1804 128.245 11.3474 128.054 11.3474H126.995V24.4457C126.995 26.0967 126.651 27.2992 125.964 28.0531H130.56C130.426 28.0722 130.13 28.2822 129.672 28.683C129.214 29.0838 128.889 29.3558 128.699 29.499C128.269 29.833 127.959 30 127.768 30H122.915C123.421 29.4942 123.741 29.0647 123.874 28.7116C124.094 28.1486 124.204 27.4376 124.204 26.5787V11.3474H121.527ZM151.245 25.0899C151.464 22.5514 151.574 20.1464 151.574 17.8751C151.574 15.5942 151.483 13.4183 151.302 11.3474H148.754C148.869 11.2615 149.055 11.1136 149.312 10.9036C149.58 10.6841 149.856 10.4646 150.143 10.2451C150.868 9.68207 151.331 9.40054 151.531 9.40054H156.928C156.718 9.46734 156.394 9.69639 155.955 10.0877C155.525 10.4789 155.186 10.77 154.938 10.9609C154.7 11.1518 154.461 11.2758 154.222 11.3331C154.241 11.5621 154.251 11.7912 154.251 12.0202C154.251 12.2493 154.251 12.4783 154.251 12.7073L154.208 15.8996C154.208 19.4116 153.831 23.124 153.077 27.0368C153.058 27.1322 153.039 27.2467 153.02 27.3803C153.001 27.5139 152.977 27.6523 152.948 27.7955C152.901 28.1295 152.843 28.3728 152.777 28.5255C152.71 28.6687 152.581 28.8357 152.39 29.0266C152.199 29.2079 151.989 29.3892 151.76 29.5705C151.493 29.7996 151.087 30.105 150.543 30.4867C150.429 29.771 150.019 28.9741 149.312 28.0961C145.905 23.8397 142.064 19.3352 137.789 14.5826V21.64C137.789 24.4362 137.574 26.2447 137.144 27.0654C136.906 27.4949 136.686 27.8241 136.486 28.0531H141.11C140.995 28.139 140.804 28.2917 140.537 28.5112C140.279 28.7212 140.007 28.9407 139.721 29.1697C138.996 29.7232 138.533 30 138.333 30H133.623C134.444 28.8166 134.911 27.261 135.026 25.3333C135.064 24.7798 135.083 23.2623 135.083 20.7811C135.083 18.2902 134.978 15.1457 134.768 11.3474H131.519C131.633 11.2615 131.819 11.1136 132.077 10.9036C132.344 10.6841 132.621 10.4646 132.907 10.2451C133.632 9.68207 134.095 9.40054 134.296 9.40054H139.693C139.444 9.48643 139.196 9.64867 138.948 9.88726C138.7 10.1258 138.533 10.2833 138.447 10.3597C141.005 13.07 143.181 15.494 144.975 17.6317C146.779 19.7599 148.081 21.2916 148.883 22.2269C149.685 23.1526 150.472 24.1069 151.245 25.0899ZM180.963 18.0612C180.963 19.0442 180.796 20.0748 180.462 21.1533C180.128 22.2221 179.665 23.248 179.073 24.231C178.491 25.2044 177.795 26.1158 176.983 26.9652C176.172 27.8146 175.289 28.5494 174.335 29.1697C172.293 30.4963 170.208 31.1595 168.079 31.1595C165.073 31.1595 162.692 30.2863 160.936 28.5399C159.171 26.7934 158.288 24.4219 158.288 21.4252C158.288 19.1635 158.913 17.04 160.163 15.055C161.347 13.1559 162.931 11.6385 164.916 10.5028C166.929 9.34805 169.072 8.77068 171.343 8.77068C173.958 8.77068 176.206 9.63435 178.086 11.3617C180.004 13.1272 180.963 15.3604 180.963 18.0612ZM178.172 20.3516C178.172 19.0251 177.938 17.7606 177.47 16.5581C177.012 15.3461 176.358 14.3106 175.509 13.4517C173.734 11.6671 171.372 10.7748 168.423 10.7748C164.577 10.7748 162.253 12.3924 161.452 15.6276C161.203 16.6488 161.079 17.8608 161.079 19.2637C161.079 20.6665 161.294 21.9978 161.724 23.2576C162.163 24.5078 162.802 25.5814 163.642 26.4785C165.398 28.3394 167.822 29.2699 170.914 29.2699C173.386 29.2699 175.251 28.411 176.511 26.6932C177.618 25.1853 178.172 23.0715 178.172 20.3516ZM195.192 11.3617C195.545 11.1231 196.452 10.4694 197.912 9.40054C199.315 10.4026 201.243 15.4654 203.695 24.5889C203.867 25.2283 204.001 25.7389 204.096 26.1206C204.278 25.6816 204.526 25.1281 204.841 24.46C205.156 23.7825 205.494 23.0476 205.857 22.2555C206.229 21.4634 206.601 20.6427 206.974 19.7933C207.355 18.944 207.699 18.128 208.004 17.3454C208.691 15.599 209.035 14.3727 209.035 13.6664C209.035 12.5594 208.682 11.7625 207.976 11.2758C207.737 11.1136 207.489 11.0325 207.231 11.0325C206.811 11.0325 206.43 11.1136 206.086 11.2758C206.401 11.1136 206.697 10.9132 206.974 10.6746C207.26 10.4265 207.546 10.1879 207.833 9.95883C208.539 9.39577 209.192 9.11424 209.794 9.11424C210.404 9.11424 210.906 9.3576 211.297 9.84431C211.669 10.2833 211.855 10.8225 211.855 11.4619C211.855 12.6071 210.428 16.3338 207.575 22.642C206.601 24.7988 206.053 26.0347 205.929 26.3496C205.805 26.6646 205.68 26.9652 205.556 27.2515C205.261 27.9195 205.041 28.3538 204.898 28.5542C204.755 28.7546 204.554 28.9455 204.297 29.1268C204.049 29.3081 203.772 29.5037 203.466 29.7137C203.161 29.9141 202.865 30.105 202.579 30.2863C202.293 30.4772 202.092 30.6156 201.978 30.7014C201.691 29.5753 201.405 28.4492 201.119 27.3231C200.842 26.1969 200.551 25.0756 200.246 23.959C199.606 21.5827 198.914 19.3782 198.17 17.3454C197.502 19.1587 196.672 21.1533 195.679 23.3292C194.686 25.5051 194.076 26.8554 193.847 27.3803C193.627 27.9052 193.379 28.3633 193.102 28.7546C192.988 28.9073 192.525 29.2508 191.714 29.7853C190.903 30.3102 190.44 30.6156 190.325 30.7014C190.22 30.2624 190.082 29.6517 189.91 28.8691C189.738 28.077 189.538 27.1799 189.309 26.1779C189.08 25.1758 188.822 24.1117 188.536 22.9856C188.249 21.8595 187.935 20.7381 187.591 19.6215C187.247 18.505 186.88 17.4361 186.489 16.415C186.097 15.3938 185.682 14.492 185.243 13.7094C184.289 12.0011 183.33 11.147 182.366 11.147C181.879 11.147 181.364 11.3045 180.82 11.6194C181.746 10.6555 182.857 9.92066 184.155 9.41486C184.585 9.24307 184.957 9.15718 185.272 9.15718C186.102 9.15718 186.875 9.72979 187.591 10.875C188.221 11.9057 188.75 13.0414 189.18 14.282C189.609 15.5131 189.953 16.5533 190.211 17.4027C190.468 18.2425 190.712 19.0871 190.941 19.9365C191.17 20.7763 191.38 21.5827 191.571 22.3557C191.857 23.4628 192.162 24.7273 192.487 26.1492C192.706 25.6434 192.954 25.0804 193.231 24.46C193.517 23.8397 193.804 23.1955 194.09 22.5275C194.386 21.8499 194.672 21.158 194.949 20.4518C195.226 19.7456 195.474 19.0489 195.693 18.3618C196.17 16.8158 196.409 15.5608 196.409 14.5969C196.409 13.2036 196.003 12.1252 195.192 11.3617Z" fill="#FF0000"/>
</g>
</svg>
